<svg id="Layer_1" data-name="Layer 1" xmlns="http://www.w3.org/2000/svg" xmlns:xlink="http://www.w3.org/1999/xlink" viewBox="0 0 512 512"><defs><linearGradient id="linear-gradient" x1="162.66" y1="256" x2="349.34" y2="256" gradientUnits="userSpaceOnUse"><stop offset="0.49" stop-color="#fff"/><stop offset="0.5" stop-color="#d1d1d1"/></linearGradient></defs><title>pointer-flat</title><circle cx="256" cy="256" r="240.92" fill="#b0d0df"/><path d="M256,15.08c133.05,0,240.92,107.87,240.92,240.92S389.05,496.92,256,496.92,15.08,389.05,15.08,256,122.94,15.08,256,15.08M256,0C114.84,0,0,114.84,0,256S114.84,512,256,512,512,397.16,512,256,397.15,0,256,0Z" fill="#fff"/><path d="M255.28,373l113.57,95.87A241.4,241.4,0,0,0,488.38,319.55L314.17,160.22Z" fill="#77a0b3"/><path d="M349.34,233.22a93.34,93.34,0,1,0-158.85,66.47L256,372.11l65.51-72.43A93,93,0,0,0,349.34,233.22Z" fill="url(#linear-gradient)"/><path d="M256,314.17a81,81,0,1,1,81-81A81,81,0,0,1,256,314.17Zm0-151.85a70.9,70.9,0,1,0,70.9,70.9A71,71,0,0,0,256,162.32Z" fill="#b0d0df"/></svg>