<svg id="Layer_1" data-name="Layer 1" xmlns="http://www.w3.org/2000/svg" xmlns:xlink="http://www.w3.org/1999/xlink" viewBox="0 0 512 512"><defs><linearGradient id="linear-gradient" x1="81" y1="233" x2="431" y2="233" gradientUnits="userSpaceOnUse"><stop offset="0.49" stop-color="#fff"/><stop offset="0.5" stop-color="#d1d1d1"/></linearGradient></defs><title>airplane-flat_1</title><path d="M496.92,256c0,133.07-107.86,240.93-240.92,240.93S15.08,389.06,15.08,256,122.94,15.08,256,15.08,496.92,122.94,496.92,256Z" fill="#b0d0df"/><path d="M256,15.08c133.06,0,240.92,107.86,240.92,240.92S389.06,496.92,256,496.92,15.08,389.06,15.08,256,122.94,15.08,256,15.08M256,0C114.84,0,0,114.84,0,256S114.84,512,256,512,512,397.15,512,256,397.16,0,256,0Z" fill="#fff"/><path d="M482.29,333.48c0-.37-.8-.73-2.31-1.08.43-.19.66-.38.66-.57,0-.37-.8-.73-2.31-1.08.43-.19.66-.38.66-.57,0-.37-.8-.73-2.31-1.08.43-.19.66-.38.66-.57,0-.37-.8-.73-2.31-1.08.43-.19.66-.38.66-.57,0-.37-.8-.73-2.31-1.08.43-.19.66-.38.66-.57,0-.37-.8-.73-2.31-1.08.43-.19.66-.38.66-.57,0-.37-.8-.73-2.31-1.08.43-.19.66-.38.66-.57,0-.37-.8-.73-2.31-1.08.43-.19.66-.38.66-.57,0-.37-.8-.73-2.31-1.08.43-.19.66-.38.66-.57,0-.37-.8-.73-2.31-1.08.43-.19.66-.38.66-.57,0-.37-.8-.73-2.31-1.08.43-.19.66-.38.66-.57,0-.37-.8-.73-2.31-1.08.43-.19.66-.38.66-.57,0-.37-.8-.73-2.31-1.08.43-.19.66-.38.66-.57,0-.37-.8-.73-2.31-1.08.43-.19.66-.38.66-.57,0-.37-.8-.73-2.31-1.08.43-.19.66-.38.66-.57,0-.37-.8-.73-2.31-1.08.43-.19.66-.38.66-.57,0-.37-.8-.73-2.31-1.08.43-.19.66-.38.66-.57,0-.37-.8-.73-2.31-1.08.43-.19.66-.38.66-.57,0-.37-.8-.73-2.31-1.08.43-.19.66-.38.66-.57,0-.37-.8-.73-2.31-1.08.43-.19.66-.38.66-.57,0-.37-.8-.73-2.31-1.08.43-.19.66-.38.66-.57,0-.37-.8-.73-2.31-1.08.43-.19.66-.38.66-.57,0-.37-.8-.73-2.31-1.08.43-.19.66-.38.66-.57,0-.37-.8-.73-2.31-1.08.43-.19.66-.38.66-.57,0-.37-.8-.73-2.31-1.08.43-.19.66-.38.66-.57,0-.37-.8-.73-2.31-1.08.43-.19.66-.38.66-.57,0-.37-.8-.73-2.31-1.08.43-.19.66-.38.66-.57,0-.37-.8-.73-2.31-1.08.43-.19.66-.38.66-.57,0-.37-.8-.73-2.31-1.08.43-.19.66-.38.66-.57,0-.37-.8-.73-2.31-1.08.43-.19.66-.38.66-.57,0-.37-.8-.73-2.31-1.08.43-.19.66-.38.66-.57,0-1.08-6.76-2.1-18.76-3,.19-.14.31-.29.31-.44,0-.39-.71-.78-2.06-1.15.26-.17.4-.34.4-.51,0-.39-.71-.78-2.06-1.15.26-.17.4-.34.4-.51,0-.39-.71-.78-2.06-1.15.26-.17.4-.34.4-.51,0-.39-.71-.78-2.06-1.15.26-.17.4-.34.4-.51,0-.39-.71-.78-2.06-1.15.26-.17.4-.34.4-.51,0-.39-.71-.78-2.06-1.15.26-.17.4-.34.4-.51,0-.39-.71-.78-2.06-1.15.26-.17.4-.34.4-.51,0-.39-.71-.78-2.06-1.15.26-.17.4-.34.4-.51,0-.39-.71-.78-2.06-1.15.26-.17.4-.34.4-.51,0-.39-.71-.78-2.06-1.15.26-.17.4-.34.4-.51,0-.39-.71-.78-2.06-1.15.26-.17.4-.34.4-.51,0-.39-.71-.78-2.06-1.15.26-.17.4-.34.4-.51,0-.39-.71-.78-2.06-1.15.26-.17.4-.34.4-.51,0-.39-.71-.78-2.06-1.15.26-.17.4-.34.4-.51,0-.39-.71-.78-2.06-1.15.26-.17.4-.34.4-.51,0-.39-.71-.78-2.06-1.15.26-.17.4-.34.4-.51,0-.39-.71-.78-2.06-1.15.26-.17.4-.34.4-.51,0-.39-.71-.78-2.06-1.15.26-.17.4-.34.4-.51,0-.39-.71-.78-2.06-1.15.26-.17.4-.34.4-.51,0-.39-.71-.78-2.06-1.15.26-.17.4-.34.4-.51,0-.39-.71-.78-2.06-1.15.26-.17.4-.34.4-.51,0-.39-.71-.78-2.06-1.15.26-.17.4-.34.4-.51,0-.39-.71-.78-2.06-1.15.26-.17.4-.34.4-.51,0-.39-.71-.78-2.06-1.15.26-.17.4-.34.4-.51,0-.39-.71-.78-2.06-1.15.26-.17.4-.34.4-.51,0-.39-.71-.78-2.06-1.15.26-.17.4-.34.4-.51,0-.39-.71-.78-2.06-1.15.26-.17.4-.34.4-.51,0-.39-.71-.78-2.06-1.15.26-.17.4-.34.4-.51,0-.39-.71-.78-2.06-1.15.26-.17.4-.34.4-.51,0-.39-.71-.78-2.06-1.15.26-.17.4-.34.4-.51,0-.39-.71-.78-2.06-1.15.26-.17.4-.34.4-.51,0-.39-.71-.78-2.06-1.15.26-.17.4-.34.4-.51,0-.39-.71-.78-2.06-1.15.26-.17.4-.34.4-.51,0-.39-.71-.78-2.06-1.15.26-.17.4-.34.4-.51,0-.39-.71-.78-2.06-1.15.26-.17.4-.34.4-.51,0-.39-.71-.78-2.06-1.15.26-.17.4-.34.4-.51,0-.39-.71-.78-2.06-1.15.26-.17.4-.34.4-.51,0-.39-.71-.78-2.06-1.15.26-.17.4-.34.4-.51,0-.39-.71-.78-2.06-1.15.26-.17.4-.34.4-.51,0-.39-.71-.78-2.06-1.15.26-.17.4-.34.4-.51,0-.39-.71-.78-2.06-1.15.26-.17.4-.34.4-.51,0-.39-.71-.78-2.06-1.15.26-.17.4-.34.4-.51,0-.39-.71-.78-2.06-1.15.26-.17.4-.34.4-.51,0-.85-3.31-1.65-9.15-2.36a.26.26,0,0,0-.16-.07.25.25,0,0,0-.1,0l-.76-.09c-.26-1-.52-1.6-.79-1.6s-.43.35-.63,1c-.32-1.72-.67-2.65-1-2.65s-.43.35-.64,1c-.32-1.72-.67-2.65-1-2.65s-.43.35-.63,1c-.32-1.72-.67-2.65-1-2.65s-.43.35-.64,1c-.32-1.72-.67-2.65-1-2.65s-.43.35-.63,1c-.32-1.72-.67-2.65-1-2.65s-.43.35-.64,1c-.32-1.72-.67-2.65-1-2.65s-.43.35-.63,1c-.32-1.72-.67-2.65-1-2.65s-.43.35-.63,1c-.32-1.72-.67-2.65-1-2.65s-.43.35-.63,1c-.32-1.72-.67-2.65-1-2.65s-.43.35-.63,1c-.32-1.72-.67-2.65-1-2.65s-.43.35-.63,1c-.32-1.72-.67-2.65-1-2.65s-.43.35-.63,1c-.32-1.72-.67-2.65-1-2.65s-.43.35-.63,1c-.32-1.72-.67-2.65-1-2.65s-.43.35-.63,1c-.32-1.72-.67-2.65-1-2.65s-.43.35-.63,1c-.32-1.72-.67-2.65-1-2.65s-.43.35-.63,1c-.32-1.72-.67-2.65-1-2.65s-.43.35-.64,1c-.32-1.72-.67-2.65-1-2.65s-.43.35-.63,1c-.32-1.72-.67-2.65-1-2.65s-.43.35-.64,1c-.32-1.72-.67-2.65-1-2.65s-.43.35-.63,1c-.32-1.72-.67-2.65-1-2.65s-.43.35-.64,1c-.32-1.72-.67-2.65-1-2.65s-.43.35-.63,1c-.32-1.72-.67-2.65-1-2.65s-.43.35-.64,1c-.32-1.72-.67-2.65-1-2.65s-.43.35-.63,1c-.32-1.72-.67-2.65-1-2.65s-.43.35-.63,1c-.32-1.72-.67-2.65-1-2.65s-.43.35-.63,1c-.32-1.72-.67-2.65-1-2.65s-.43.35-.63,1c-.32-1.72-.67-2.65-1-2.65s-.43.35-.63,1c-.32-1.72-.67-2.65-1-2.65s-.43.35-.63,1c-.32-1.72-.67-2.65-1-2.65s-.43.35-.63,1c-.32-1.72-.67-2.65-1-2.65s-.43.35-.63,1c-.32-1.72-.67-2.65-1-2.65s-.43.35-.63,1c-.32-1.72-.67-2.65-1-2.65s-.43.35-.63,1c-.32-1.72-.67-2.65-1-2.65s-.43.35-.64,1c-.32-1.72-.67-2.65-1-2.65s-.43.35-.63,1c-.32-1.72-.67-2.65-1-2.65s-.43.35-.64,1c-.32-1.72-.67-2.65-1-2.65s-.43.35-.63,1c-.32-1.72-.67-2.65-1-2.65s-.43.35-.64,1c-.32-1.72-.67-2.65-1-2.65s-.43.35-.63,1c-.32-1.72-.67-2.65-1-2.65s-.43.35-.64,1c-.32-1.72-.67-2.65-1-2.65s-.43.35-.63,1c-.32-1.72-.67-2.65-1-2.65s-.43.35-.63,1c-.32-1.72-.67-2.65-1-2.65s-.43.35-.63,1c-.32-1.72-.67-2.65-1-2.65s-.43.35-.63,1c-.32-1.72-.67-2.65-1-2.65s-.43.35-.63,1c-.32-1.72-.67-2.65-1-2.65-1.61,0-2.94,18.51-3.36,43.82-21.58,1.12-40.62,12.89-53,30.78-17.77,1-29.05,2.37-29.05,3.93,0,.39.73.78,2.06,1.15-.26.17-.41.34-.41.51,0,.39.73.78,2.06,1.15-.26.17-.41.34-.41.51,0,.39.73.78,2.06,1.15-.26.17-.41.34-.41.51,0,.39.73.78,2.06,1.15-.26.17-.41.34-.41.51,0,.39.73.78,2.06,1.15-.26.17-.41.34-.41.51,0,.39.73.78,2.06,1.15-.26.17-.41.34-.41.51,0,.39.73.78,2.06,1.15-.26.17-.41.34-.41.51,0,.39.73.78,2.06,1.15-.26.17-.41.34-.41.51,0,.39.73.78,2.06,1.15-.26.17-.41.34-.41.51,0,.39.73.78,2.06,1.15-.26.17-.41.34-.41.51,0,.37.65.74,1.85,1.09l-.12.35a.4.4,0,0,0-.08.21v0a87,87,0,0,0-4.1,26.49A89,89,0,0,0,187.89,276c-62.82,1-106.89,3.38-106.89,6.14,0,.36.8.72,2.32,1.07-.44.19-.67.39-.67.58,0,.37.8.72,2.32,1.07-.44.19-.67.39-.67.58,0,.36.8.72,2.32,1.07-.44.19-.67.39-.67.58,0,.37.8.72,2.32,1.07-.44.19-.67.39-.67.58,0,.36.8.72,2.32,1.07-.44.19-.67.39-.67.58,0,.37.8.72,2.32,1.07-.44.19-.67.39-.67.58,0,.36.8.72,2.32,1.07-.44.19-.67.39-.67.58,0,.37.8.72,2.32,1.07-.44.19-.67.39-.67.58,0,.36.8.72,2.32,1.07-.44.19-.67.39-.67.58,0,.37.8.72,2.32,1.07-.44.19-.67.39-.67.58,0,.36.8.72,2.32,1.07-.44.19-.67.39-.67.58,0,.36.8.72,2.32,1.07-.44.19-.67.39-.67.58,0,.37.8.72,2.32,1.07-.44.19-.67.39-.67.58,0,.36.8.72,2.32,1.07-.44.19-.67.39-.67.58,0,.37.8.72,2.32,1.07-.44.19-.67.39-.67.58,0,.36.8.72,2.32,1.07-.44.19-.67.39-.67.58,0,.37.8.72,2.32,1.07-.44.19-.67.39-.67.58,0,.36.8.72,2.32,1.07-.44.19-.67.39-.67.58,0,.37.8.72,2.32,1.07-.44.19-.67.39-.67.58,0,.36.8.72,2.32,1.07-.44.19-.67.39-.67.58,0,.37.8.72,2.32,1.07-.44.19-.67.39-.67.58,0,.36.8.72,2.32,1.07-.44.19-.67.39-.67.58,0,.37.8.72,2.32,1.07-.44.19-.67.39-.67.58,0,.36.8.72,2.32,1.07-.44.19-.67.39-.67.58s.54.59,1.56.88l.29.46a.44.44,0,0,0-.2.32c0,.22.29.44.85.65q.41.58.85,1.15l.05.06A30.06,30.06,0,0,0,127.4,329q.8.86,1.65,1.65t1.66,1.66q.79.86,1.65,1.65T134,335.6q.8.86,1.66,1.66t1.65,1.65q.79.86,1.65,1.65t1.65,1.65q.79.86,1.65,1.65t1.66,1.66q.79.86,1.65,1.65t1.65,1.65q.8.86,1.66,1.66t1.65,1.65q.79.86,1.65,1.65t1.65,1.65q.79.86,1.65,1.65t1.65,1.65q.8.86,1.66,1.66t1.65,1.65q.79.86,1.65,1.65t1.66,1.66q.8.86,1.65,1.65t1.65,1.65q.8.86,1.65,1.65t1.65,1.65q.8.86,1.66,1.66t1.65,1.65q.79.86,1.65,1.65t1.66,1.66q.8.86,1.65,1.65t1.65,1.65q.8.86,1.65,1.65t1.65,1.65q.8.86,1.65,1.65t1.66,1.66q.79.86,1.65,1.65t1.65,1.65q.8.86,1.66,1.66t1.65,1.65q.79.86,1.65,1.65t1.65,1.65q.79.86,1.65,1.65t1.66,1.66q.79.86,1.65,1.65t1.65,1.65q.8.86,1.66,1.66t1.65,1.65q.79.86,1.65,1.65t1.65,1.65q.79.86,1.65,1.65t1.65,1.65q.8.86,1.66,1.66t1.65,1.65q.79.86,1.65,1.65t1.66,1.66q.8.86,1.65,1.65t1.65,1.65q.8.86,1.65,1.65t1.65,1.65q.8.86,1.66,1.66t1.65,1.65q.79.86,1.65,1.65t1.66,1.66q.8.86,1.65,1.65t1.65,1.65q.8.86,1.65,1.65t1.65,1.65q.8.86,1.65,1.65t1.66,1.66q.79.86,1.65,1.65t1.65,1.65q.8.86,1.66,1.66t1.65,1.65q.79.86,1.65,1.65t1.65,1.65q.79.86,1.65,1.65t1.66,1.66q.79.86,1.65,1.65t1.65,1.65q.8.86,1.66,1.66t1.65,1.65q.79.86,1.65,1.65t1.65,1.65q.79.86,1.65,1.65t1.65,1.65q.8.86,1.66,1.66t1.65,1.65q.79.86,1.65,1.65t1.66,1.66q.8.86,1.65,1.65t1.65,1.65q.8.86,1.65,1.65t1.65,1.65q.8.86,1.66,1.66t1.65,1.65q.79.86,1.65,1.65t1.66,1.66q.8.86,1.65,1.65c.45.48.91.94,1.39,1.39,88.9-13.54,161.81-75.66,190.83-158.44l-.12,0,.15-.08.29-.82a6.08,6.08,0,0,0-2.1-.76C482.06,333.86,482.29,333.67,482.29,333.48Z" fill="#77a0b3"/><path d="M431,282.19c0-2.76-44.08-5.12-106.91-6.14a88.26,88.26,0,0,0,3.24-23.73,86.23,86.23,0,0,0-10.28-41c15.05-.94,24.37-2.25,24.37-3.68s-11.27-3-29-3.93c-12.41-17.89-31.45-29.65-53-30.78-.42-25.31-1.78-43.82-3.36-43.82s-2.94,18.51-3.36,43.82c-21.58,1.12-40.62,12.89-53,30.78-17.77,1-29.05,2.37-29.05,3.93s9.32,2.74,24.39,3.68a86,86,0,0,0-10.28,41A89,89,0,0,0,187.89,276c-62.82,1-106.89,3.38-106.89,6.14,0,1.69,17,3.24,44.92,4.41A29.86,29.86,0,1,0,170.59,288q10.52.23,21.86.38c11.78,25.86,35.79,43.58,63.55,43.58s51.75-17.73,63.54-43.58c8.14-.11,16-.25,23.48-.41a29.87,29.87,0,1,0,44.58-1.39C414.62,285.39,431,283.85,431,282.19ZM170.86,307a23.22,23.22,0,1,1-23.22-23.2A23.2,23.2,0,0,1,170.86,307Zm87-101.4a154.38,154.38,0,0,1,24.92,2.14v10.13q-12.3-.36-24.92-.38Zm-28.69,2.14a154.38,154.38,0,0,1,24.92-2.14v11.88c-8.41,0-16.74.14-24.92.38Zm-22.83,11.13c.53-4.24,7.88-7.94,19-10.37v9.52C219,218.31,212.6,218.53,206.36,218.91ZM256,309.66a32.47,32.47,0,1,1,32.48-32.46A32.48,32.48,0,0,1,256,309.66Zm30.58-91.6v-9.52c11.18,2.44,18.51,6.14,19,10.37C299.37,218.53,293,218.31,286.58,218.05Zm102.58,89a23.22,23.22,0,1,1-23.22-23.2A23.21,23.21,0,0,1,389.17,307Z" fill="url(#linear-gradient)"/></svg>