<svg xmlns="http://www.w3.org/2000/svg" viewBox="0 0 512 512"><title>suitcase-flat</title><g style="isolation:isolate"><g id="Layer_1" data-name="Layer 1"><path d="M496.92,256c0,133.06-107.86,240.92-240.92,240.92S15.08,389.06,15.08,256,122.95,15.08,256,15.08,496.92,122.94,496.92,256Z" fill="#b0d0df"/><path d="M496.92,256c0,133.06-107.86,240.92-240.92,240.92S15.08,389.06,15.08,256,122.95,15.08,256,15.08,496.92,122.94,496.92,256Z" fill="#b0d0df"/><path d="M256,15.08c133.06,0,240.92,107.86,240.92,240.92S389.06,496.92,256,496.92,15.08,389.06,15.08,256,122.95,15.08,256,15.08M256,0C114.84,0,0,114.84,0,256S114.84,512,256,512,512,397.16,512,256,397.16,0,256,0Z" fill="#fff"/><path d="M494.49,290h0L373.27,183l-33.55,23.13L287.41,160l-61.09,5.46L215,219.87,138.74,344.66,313.66,489.93C408.14,466.72,480.68,387.81,494.49,290Z" fill="#77a0b3"/><rect x="138.74" y="183" width="234.53" height="161.66" fill="#fff"/><rect x="256.01" y="183" width="117.26" height="161.66" fill="#d1d1d1" style="mix-blend-mode:multiply"/><path d="M225,183v-6.44a9.22,9.22,0,0,1,9.22-9.22h43.53a9.23,9.23,0,0,1,9.23,9.22V183H297v-6.44a19.3,19.3,0,0,0-19.28-19.27H234.23A19.29,19.29,0,0,0,215,176.56V183Z" fill="#fff"/><path d="M277.77,157.29H256v10.05h21.76a9.23,9.23,0,0,1,9.23,9.22V183H297v-6.44A19.3,19.3,0,0,0,277.77,157.29Z" fill="#d1d1d1" style="mix-blend-mode:multiply"/></g></g></svg>