<svg id="Layer_1" data-name="Layer 1" xmlns="http://www.w3.org/2000/svg" xmlns:xlink="http://www.w3.org/1999/xlink" viewBox="0 0 512 512"><defs><linearGradient id="linear-gradient" x1="142" y1="256" x2="370" y2="256" gradientUnits="userSpaceOnUse"><stop offset="0.49" stop-color="#fff"/><stop offset="0.5" stop-color="#d1d1d1"/></linearGradient></defs><title>backpack-flat</title><path d="M496.92,256c0,133.06-107.86,240.92-240.92,240.92S15.08,389.06,15.08,256,122.94,15.08,256,15.08,496.92,122.94,496.92,256Z" fill="#c8ce2f"/><path d="M256,15.08c133.06,0,240.92,107.86,240.92,240.93S389.06,496.92,256,496.92,15.08,389.06,15.08,256,122.94,15.08,256,15.08M256,0C114.85,0,0,114.85,0,256S114.85,512,256,512,512,397.16,512,256,397.16,0,256,0Z" fill="#fff"/><path d="M490.64,307.68l-.3,0-.53-.78-.3,0L489,306l-.3,0-.53-.78-.3,0-.53-.78-.3,0-.53-.78-.3,0-.53-.78-.3,0-.53-.78-.3,0L484,301l-.3,0-.53-.78-.3,0-.53-.78-.3,0-.53-.78-.3,0-.53-.78-.3,0-.53-.78-.3,0-.53-.78-.3,0-.53-.78-.3,0-.53-.78-.3,0-.53-.78-.3,0-.53-.78-.3,0-.53-.78-.3,0-.53-.78-.3,0-.53-.78-.3,0-.53-.78-.3,0-.53-.78-.3,0-.53-.78-.3,0-.53-.78-.3,0-.53-.78-.3,0-.53-.78-.3,0-.53-.78-.3,0-.53-.78-.3,0-.53-.78-.3,0-.53-.78-.3,0-.53-.78-.3,0-.53-.78-.3,0-.53-.78-.3,0-.53-.78-.3,0-.53-.78-.3,0L460,277l-.3,0-.53-.78-.3,0-.53-.78-.3,0-.53-.78-.3,0-.53-.78-.3,0-.53-.78-.3,0L455,272l-.3,0-.53-.78-.3,0-.53-.78-.3,0-.53-.78-.3,0-.53-.78-.3,0-.53-.78-.3,0L450,267l-.3,0-.53-.78-.3,0-.53-.78-.3,0-.53-.78-.3,0-.53-.78-.3,0-.53-.78-.3,0-.53-.78-.3,0-.53-.78-.3,0-.53-.78-.3,0-.53-.78-.3,0-.53-.78-.3,0-.53-.78-.3,0-.53-.78-.3,0-.53-.78-.3,0-.53-.78-.3,0-.53-.78-.3,0-.53-.78-.3,0-.53-.78-.3,0-.53-.78-.3,0-.53-.78-.3,0-.53-.78-.3,0-.53-.78-.3,0-.53-.78-.3,0-.53-.78-.3,0-.53-.78-.3,0-.53-.78-.3,0-.53-.78-.3,0-.53-.78-.3,0-.53-.78-.3,0-.53-.78-.3,0-.53-.78-.3,0-.53-.78-.3,0-.53-.78-.3,0-.53-.78-.3,0-.53-.78-.3,0L421,238l-.3,0-.53-.78-.3,0-.53-.78-.3,0-.53-.78-.3,0-.53-.78-.3,0-.53-.78-.3,0L416,233l-.3,0-.53-.78-.3,0-.53-.78-.3,0-.53-.78-.3,0-.53-.78-.3,0-.53-.78-.3,0L411,228l-.3,0-.53-.78-.3,0-.53-.78-.3,0-.53-.78-.3,0-.53-.78-.3,0-.53-.78-.3,0-.53-.78-.3,0-.53-.78-.3,0-.53-.78-.3,0-.53-.78-.3,0-.53-.78-.3,0-.53-.78-.3,0-.53-.78-.3,0-.53-.78-.3,0-.53-.78-.3,0-.53-.78-.3,0-.53-.78-.3,0-.53-.78-.3,0-.53-.78-.3,0-.53-.78-.3,0-.53-.78-.3,0-.53-.78-.3,0-.53-.78-.3,0-.53-.78-.3,0-.53-.78-.3,0-.53-.78-.3,0-.53-.78-.3,0-.53-.78-.3,0-.53-.78-.3,0L387,204l-.3,0-.53-.78-.3,0-.53-.78-.3,0-.53-.78-.3,0-.53-.78-.3,0-.53-.78-.3,0L382,199l-.3,0-.53-.78-.3,0-.53-.78-.3,0-.53-.78-.3,0-.53-.78-.3,0-.53-.78-.3,0L377,194l-.3,0-.53-.78-.3,0-.53-.78-.3,0-.53-.78-.3,0-.53-.78-.3,0-.53-.78-.3,0-.53-.78-.3,0-.53-.78-.3,0-.53-.78-.3,0-.53-.78-.3,0-.53-.78-.3,0-.53-.78-.3,0-.53-.78-.3,0-.53-.78-.3,0-.53-.78-.3,0-.53-.78-.3,0-.53-.78-.3,0-.53-.78-.3,0-.53-.78-.3,0-.53-.78-.3,0-.53-.78-.3,0-.53-.78-.3,0-.53-.78-.3,0-.53-.78-.3,0-.53-.78-.3,0-.53-.78-.3,0-.53-.78-.3,0-.53-.78-.3,0-.53-.78-.3,0-.53-.78-.3,0-.53-.78-.3,0-.53-.78-.3,0-.53-.78-.3,0-.53-.78-.3,0-.53-.78-.3,0L348,165l-.3,0-.53-.78-.3,0-.53-.78-.3,0-.53-.78-.3,0-.53-.78-.3,0-.53-.78-.3,0L343,160l-.3,0-.53-.78-.3,0-.53-.78-.3,0-.53-.78-.3,0-.53-.78-.3,0-.53-.78-.3,0-.53-.78-.3,0-.53-.78-.3,0-.53-.78-.3,0-.53-.78-.3,0-.53-.78-.3,0-.53-.78-.3,0-.53-.78-.3,0-.53-.78-.3,0-.53-.78-.3,0-.53-.78-.3,0-.53-.78-.3,0-.53-.78-.3,0-.53-.78-.3,0-.53-.78-.3,0-.53-.78-.3,0-.53-.78-.3,0-.53-.78q-19.18-3.15-38.95-4.52a818.2,818.2,0,0,1-1.65-1.64,15930.18,15930.18,0,0,0-1.66-1.66,15938.39,15938.39,0,0,1-1.66-1.66,15950.28,15950.28,0,0,0-1.66-1.66,7973.34,7973.34,0,0,0-1.66-1.66,15941.9,15941.9,0,0,1-1.66-1.66,7968.9,7968.9,0,0,1-1.66-1.66,27061765.64,27061765.64,0,0,0-1.66-1.66,5314.1,5314.1,0,0,0-1.66-1.66,7973.34,7973.34,0,0,0-1.66-1.66,15926.52,15926.52,0,0,1-1.66-1.66,41272835628501.67,41272835628501.67,0,0,0-1.66-1.66,15926.52,15926.52,0,0,1-1.66-1.66,15951.45,15951.45,0,0,0-1.66-1.66,15940.73,15940.73,0,0,0-1.66-1.66,7.83,7.83,0,0,0-.83-.83,5.38,5.38,0,0,0-4.09-2.12c-6.84,0-9.52,14.61-10.24,26.79a435.41,435.41,0,0,0-58.16,5c-18.44,26.37-29.91,59.26-29.91,83.58,0,14.16,3.89,23.83,10.79,30.42.27.28.55.56.83.83s.55.56.83.83.55.56.83.83.55.56.83.83.55.56.83.83.55.56.83.83.55.56.83.83.55.56.83.83.55.56.83.83.55.56.83.83.55.56.83.83.55.56.83.83.55.56.83.83.55.56.83.83.55.56.83.83.55.56.83.83.55.56.83.83.55.56.83.83l.41.41a62.48,62.48,0,0,1-9.57-2.9l-.07-.17,0,.13-.49-.21c-.1-.25-.21-.49-.31-.75l-.14.55-.14-.06c-.18-.44-.38-.87-.55-1.32l-.18.73c-.22-.52-.44-1-.64-1.56l-.18.73c-.22-.52-.44-1-.64-1.56l-.18.73c-.22-.52-.44-1-.64-1.56l-.18.73c-.22-.52-.44-1-.64-1.56l-.18.73c-.22-.52-.44-1-.64-1.56l-.18.73c-.22-.52-.44-1-.64-1.56l-.18.73c-.22-.52-.44-1-.64-1.56l-.18.73c-.22-.52-.44-1-.64-1.56l-.18.73c-.22-.52-.44-1-.64-1.56l-.18.73c-.22-.52-.44-1-.64-1.56l-.18.73c-.22-.52-.44-1-.64-1.56l-.18.73c-.22-.52-.44-1-.64-1.56l-.18.73c-.22-.52-.44-1-.64-1.56l-.18.73c-.22-.52-.44-1-.64-1.56l-.18.73c-.22-.52-.44-1-.64-1.56l-.18.73c-.22-.52-.44-1-.64-1.56l-.18.73c-.22-.52-.44-1-.64-1.56l-.18.73c-.22-.52-.44-1-.64-1.56l-.18.73c-.22-.52-.44-1-.64-1.56l-.18.73c-.22-.52-.44-1-.64-1.56l-.18.73c-.22-.52-.44-1-.64-1.56l-.18.73c-.22-.52-.44-1-.64-1.56l-.18.73c-.22-.52-.44-1-.64-1.56C146.15,274.73,142,302.53,142,325.86c0,29.79,6.71,48,18.25,59.22l.83.83.83.83.83.83.83.83.83.83.83.83.83.83.83.83.83.83.83.83.83.83.83.83.83.83.83.83.83.83.83.83.83.83.83.83.83.83.83.83.83.83.83.83.83.83.83.83.83.83.83.83.83.83.83.83.83.83.83.83.83.83.83.83.83.83.83.83.83.83.83.83.83.83.83.83.83.83.83.83.83.83.83.83.83.83.83.83.83.83.83.83.83.83.83.83.83.83.83.83.83.83.83.83.83.83.83.83.83.83.83.83.83.83.83.83.83.83.83.83.83.83.83.83.83.83.83.83.83.83.83.83.83.83.83.83.83.83.83.83.83.83.83.83.83.83.83.83.83.83.83.83.83.83.83.83.83.83.83.83.83.83.83.83.83.83.83.83.83.83.83.83.83.83.83.83.83.83.83.83.83.83.83.83.83.83.83.83.83.83.83.83.83.83.83.83.83.83.83.83.83.83.83.83.83.83.83.83.83.83.83.83.83.83.83.83.83.83.83.83.83.83.83.83.83.83.83.83.83.83.83.83.83.83.83.83.83.83.83.83.83.83.83.83.83.83.83.83.83.83.83.83.83.83.83.83.83.83.83.83.83.83.83.83.83.83.83.83.18.18c108.06-6.9,196.74-85,219.6-187.94h0Z" fill="#a4a826"/><path d="M247.85,269.28V316.2h16.31V269.28c50.47.19,90.15.79,90.15-44.43,0-24.19-11.31-56.77-29.56-83.06a432.18,432.18,0,0,0-58.5-5.48c-.71-12.17-3.37-26.86-10.24-26.86s-9.52,14.61-10.24,26.79a435.39,435.39,0,0,0-58.16,5c-18.44,26.37-29.91,59.26-29.91,83.58C157.69,270.07,197.38,269.47,247.85,269.28ZM256,115.08c1.65,1.29,4.15,8.76,4.89,21.09-2.08,0-4.15-.14-6.23-.14-1.18,0-2.37.09-3.56.09C251.86,123.82,254.36,116.37,256,115.08ZM256,158a44,44,0,1,1-44,44A44,44,0,0,1,256,158ZM358.56,246.8c-10.11,26.91-46.27,27.1-90.85,27v44H244.23v-44c-47.48.11-80.2,1.19-90.79-27C146.15,274.73,142,302.53,142,325.86c0,82.2,51,76.62,114,76.62s114,5.58,114-76.62C370,302.53,365.86,274.73,358.56,246.8ZM231.43,369.4a10.68,10.68,0,0,1-10.9,10.41H181.7a10.67,10.67,0,0,1-10.88-10.41V316.16h60.61Zm0-57.71h-27.3a3.88,3.88,0,0,0,1.45-3,4,4,0,0,0-8,0,3.87,3.87,0,0,0,1.44,3H170.82V290.52a10.66,10.66,0,0,1,10.88-10.41h38.83a10.68,10.68,0,0,1,10.9,10.41ZM338.24,369.4a10.68,10.68,0,0,1-10.89,10.41H288.51a10.67,10.67,0,0,1-10.88-10.41V316.16h60.61Zm0-57.71H311.38a3.87,3.87,0,0,0,1.44-3,4,4,0,0,0-8,0,3.86,3.86,0,0,0,1.43,3H277.63V290.52a10.66,10.66,0,0,1,10.88-10.41h38.84a10.67,10.67,0,0,1,10.89,10.41Z" fill="url(#linear-gradient)"/></svg>